<svg height='300px' width='300px'  fill="#000000" xmlns:x="http://ns.adobe.com/Extensibility/1.0/" xmlns:i="http://ns.adobe.com/AdobeIllustrator/10.0/" xmlns:graph="http://ns.adobe.com/Graphs/1.0/" xmlns="http://www.w3.org/2000/svg" xmlns:xlink="http://www.w3.org/1999/xlink" version="1.1" x="0px" y="0px" viewBox="0 0 64 64" enable-background="new 0 0 64 64" xml:space="preserve"><metadata><sfw xmlns="http://ns.adobe.com/SaveForWeb/1.0/"><slices></slices><sliceSourceBounds height="16384" width="16389" x="-8165" y="-8160" bottomLeftOrigin="true"></sliceSourceBounds></sfw></metadata><g><g><path d="M48,7.5H16c-4.687,0-8.5,3.813-8.5,8.5v32c0,4.687,3.813,8.5,8.5,8.5h32c4.687,0,8.5-3.813,8.5-8.5V16    C56.5,11.313,52.687,7.5,48,7.5z M55.5,48c0,4.136-3.364,7.5-7.5,7.5H16c-4.136,0-7.5-3.364-7.5-7.5V16c0-4.136,3.364-7.5,7.5-7.5    h32c4.136,0,7.5,3.364,7.5,7.5V48z"></path><path d="M44,19.5h-6.342c-0.276,0-0.5,0.224-0.5,0.5s0.224,0.5,0.5,0.5h5.04L20.5,42.889v-5.23c0-0.276-0.224-0.5-0.5-0.5    s-0.5,0.224-0.5,0.5V44c0,0.276,0.224,0.5,0.5,0.5h6.344c0.276,0,0.5-0.224,0.5-0.5s-0.224-0.5-0.5-0.5h-5.043L43.5,21.112V26    c0,0.276,0.224,0.5,0.5,0.5s0.5-0.224,0.5-0.5v-6C44.5,19.724,44.276,19.5,44,19.5z"></path></g></g></svg>