<svg height='300px' width='300px'  fill="#000000" xmlns:dc="http://purl.org/dc/elements/1.1/" xmlns:cc="http://creativecommons.org/ns#" xmlns:rdf="http://www.w3.org/1999/02/22-rdf-syntax-ns#" xmlns:svg="http://www.w3.org/2000/svg" xmlns="http://www.w3.org/2000/svg" xmlns:sodipodi="http://sodipodi.sourceforge.net/DTD/sodipodi-0.dtd" xmlns:inkscape="http://www.inkscape.org/namespaces/inkscape" version="1.1" x="0px" y="0px" viewBox="0 0 100 100"><g transform="translate(0,-952.36218)"><path style="text-indent:0;text-transform:none;direction:ltr;block-progression:tb;baseline-shift:baseline;color:#000000;enable-background:accumulate;" d="m 65.165071,958.36218 c 9.249697,0 16.834925,7.58604 16.834925,16.80899 l 0,54.34793 c 0,9.2542 -7.585228,16.8431 -16.834925,16.8431 l -30.364264,0 c -9.218408,0 -16.800803,-7.5889 -16.800803,-16.8431 l 0,-54.34793 c 0,-9.22295 7.582394,-16.80899 16.800803,-16.80899 l 30.364264,0 z m 0,5.45525 -30.364264,0 c -6.237708,0 -11.34822,5.11299 -11.34822,11.35374 l 0,54.34793 c 0,6.2868 5.110512,11.3878 11.34822,11.3878 l 30.364264,0 c 6.283807,0 11.382342,-5.101 11.382342,-11.3878 l 0,-24.4463 -33.567732,0 8.656157,8.5579 a 2.7350955,2.7364202 0 1 1 -3.850937,3.8868 l -13.358939,-13.2289 a 2.7265773,2.7278978 0 0 1 0,-3.8869 l 13.393027,-13.19489 a 2.7265773,2.7278978 0 0 1 1.942476,-0.78418 2.7265773,2.7278978 0 0 1 0.272622,0 2.7265773,2.7278978 0 0 1 1.601751,4.67106 l -8.656157,8.52383 33.567732,0 0,-24.44634 c 0,-6.24075 -5.098535,-11.35374 -11.382342,-11.35374 z" fill="#000000" fill-opacity="1" fill-rule="evenodd" stroke="none" marker="none" visibility="visible" display="inline" overflow="visible"></path></g></svg>