<svg height='300px' width='300px'  fill="#000000" xmlns="http://www.w3.org/2000/svg" data-name="Layer 2" viewBox="0 0 24 24" x="0px" y="0px"><title>UI</title><path d="M22,6H17V2a1,1,0,0,0-1-1H8A1,1,0,0,0,7,2V6H2A1,1,0,0,0,1,7v4a1,1,0,0,0,1,1H22a1,1,0,0,0,1-1V7A1,1,0,0,0,22,6ZM9,3h6V6H9Zm12,7H3V8H21Z"></path><path d="M20.243,13.03a1,1,0,0,0-1.213.728L17.219,21H6.781L4.97,13.758a1,1,0,1,0-1.94.484l2,8A1,1,0,0,0,6,23H18a1,1,0,0,0,.97-.758l2-8A1,1,0,0,0,20.243,13.03Z"></path><path d="M11,19V14a1,1,0,0,0-2,0v5a1,1,0,0,0,2,0Z"></path><path d="M15,19V14a1,1,0,0,0-2,0v5a1,1,0,0,0,2,0Z"></path></svg>