<svg height='300px' width='300px'  fill="#000000" xmlns="http://www.w3.org/2000/svg" data-name="Layer 2" viewBox="0 0 24 24" x="0px" y="0px"><title>UI</title><path d="M22.669,10.257l-10-9a1,1,0,0,0-1.338,0l-10,9a1,1,0,0,0,1.338,1.486L12,3.345l9.331,8.4a1,1,0,0,0,1.338-1.486Z"></path><path d="M20,13a1,1,0,0,0-1,1v5.774A1.227,1.227,0,0,1,17.774,21H6.226A1.227,1.227,0,0,1,5,19.774V14a1,1,0,0,0-2,0v5.774A3.229,3.229,0,0,0,6.226,23H17.774A3.229,3.229,0,0,0,21,19.774V14A1,1,0,0,0,20,13Z"></path></svg>