<svg height='300px' width='300px'  fill="#000000" xmlns="http://www.w3.org/2000/svg" xmlns:xlink="http://www.w3.org/1999/xlink" version="1.1" x="0px" y="0px" viewBox="0 0 100 100" enable-background="new 0 0 100 100" xml:space="preserve"><rect x="5" y="5.03" fill="none" width="90" height="89.999"></rect><g><path d="M91.423,32.533c-2.265-5.354-5.505-10.162-9.634-14.29c-4.128-4.127-8.938-7.369-14.29-9.634   C61.956,6.264,56.068,5.076,50,5.076S38.044,6.264,32.502,8.609c-5.354,2.265-10.162,5.506-14.289,9.634   c-4.128,4.128-7.37,8.936-9.635,14.29c-2.344,5.542-3.533,11.43-3.533,17.498c0,6.069,1.189,11.956,3.533,17.499   c2.265,5.354,5.506,10.162,9.635,14.291c4.127,4.129,8.935,7.369,14.289,9.633c5.542,2.344,11.43,3.531,17.498,3.531   s11.956-1.188,17.499-3.531c5.353-2.264,10.162-5.504,14.29-9.633c4.129-4.129,7.369-8.938,9.634-14.291   c2.344-5.543,3.533-11.43,3.533-17.499C94.956,43.962,93.767,38.074,91.423,32.533z M50,22.88c7.254,0,14.071,2.824,19.2,7.953   c5.128,5.127,7.951,11.945,7.951,19.198c0,7.254-2.823,14.071-7.951,19.2c-5.129,5.129-11.946,7.951-19.2,7.951   c-7.251,0-14.07-2.822-19.198-7.951s-7.952-11.945-7.952-19.2c0-7.252,2.824-14.07,7.952-19.198   C35.93,25.705,42.749,22.88,50,22.88z M18.063,78.102C11.466,70.607,7.46,60.777,7.46,50.031c0-10.697,3.969-20.484,10.511-27.967   l12.577,7.003c-0.259,0.242-0.518,0.488-0.771,0.74c-5.401,5.402-8.375,12.584-8.375,20.223c0,7.639,2.974,14.823,8.375,20.223   c0.293,0.293,0.594,0.578,0.898,0.855L18.063,78.102z"></path><path d="M38.83,68.121c0.189,0.111,0.401,0.166,0.613,0.166c0.201,0,0.403-0.051,0.586-0.15l30.495-16.908   c0.385-0.213,0.623-0.616,0.623-1.055s-0.238-0.844-0.623-1.056L40.028,32.209c-0.375-0.208-0.83-0.202-1.199,0.015   c-0.368,0.217-0.595,0.612-0.595,1.041v33.813C38.235,67.508,38.461,67.904,38.83,68.121z M40.65,35.315l26.798,14.858   L40.65,65.029V35.315z"></path></g></svg>