<svg height='300px' width='300px'  fill="#000000" xmlns="http://www.w3.org/2000/svg" data-name="Layer 2" viewBox="0 0 24 24" x="0px" y="0px"><title>UI</title><path d="M22,12a1,1,0,0,0-1,1v4.34A2.663,2.663,0,0,1,18.34,20H5.66A2.663,2.663,0,0,1,3,17.34V13a1,1,0,0,0-2,0v4.34A4.666,4.666,0,0,0,5.66,22H18.34A4.666,4.666,0,0,0,23,17.34V13A1,1,0,0,0,22,12Z"></path><path d="M6.707,9.707,11,5.414V16a1,1,0,0,0,2,0V5.414l4.293,4.293a1,1,0,0,0,1.414-1.414l-6-6a1,1,0,0,0-1.414,0l-6,6A1,1,0,0,0,6.707,9.707Z"></path></svg>