<svg height='300px' width='300px'  fill="#000000" xmlns="http://www.w3.org/2000/svg" xmlns:xlink="http://www.w3.org/1999/xlink" version="1.1" x="0px" y="0px" viewBox="0 0 16 16" style="enable-background:new 0 0 16 16;" xml:space="preserve"><path d="M4.8,4.85c0,1.765,1.436,3.2,3.2,3.2s3.2-1.436,3.2-3.2C11.2,3.086,9.765,1.65,8,1.65S4.8,3.086,4.8,4.85z M8,2.65  c1.213,0,2.2,0.986,2.2,2.199S9.213,7.05,8,7.05s-2.2-0.987-2.2-2.2S6.787,2.65,8,2.65z"></path><path d="M12.1,13.85V12.5c0-2.261-1.839-4.1-4.1-4.1s-4.1,1.839-4.1,4.1v1.35h1V12.5c0-1.709,1.391-3.1,3.1-3.1s3.1,1.391,3.1,3.1  v1.35H12.1z"></path></svg>