<svg height='300px' width='300px'  fill="#000000" xmlns="http://www.w3.org/2000/svg" xmlns:xlink="http://www.w3.org/1999/xlink" version="1.1" x="0px" y="0px" viewBox="0 0 512 512" style="enable-background:new 0 0 512 512;" xml:space="preserve"><g><g><g><g><path d="M111.302,494c-0.568,0-1.14-0.121-1.673-0.367c-1.298-0.599-2.179-1.844-2.31-3.268L99.4,404H30c-2.209,0-4-1.791-4-4      V30c0-2.209,1.791-4,4-4h460c2.209,0,4,1.791,4,4v370c0,2.209-1.791,4-4,4H239.758l-126.145,89.266      C112.926,493.752,112.116,494,111.302,494z M34,396h69.05c2.067,0,3.794,1.576,3.983,3.635l7.619,83.095l121.523-85.995      c0.676-0.478,1.483-0.734,2.311-0.734H486V34H34V396z"></path></g><g><path d="M450,324H70c-2.209,0-4-1.791-4-4V70c0-2.209,1.791-4,4-4h380c2.209,0,4,1.791,4,4v250C454,322.209,452.209,324,450,324      z M74,316h372V74H74V316z"></path></g><g><path d="M208.49,284c-0.69,0-1.381-0.179-2-0.536c-1.238-0.714-2-2.035-2-3.464V116.599c0-1.429,0.762-2.75,2-3.464      c1.237-0.715,2.763-0.715,4,0L352,194.835c1.237,0.714,2,2.035,2,3.464s-0.763,2.75-2,3.464l-141.51,81.701      C209.872,283.821,209.181,284,208.49,284z M212.49,123.527v149.545L342,198.299L212.49,123.527z"></path></g></g></g></g></svg>