<svg height='300px' width='300px'  fill="#000000" xmlns="http://www.w3.org/2000/svg" data-name="Layer 2" viewBox="0 0 24 24" x="0px" y="0px"><title>UI</title><path d="M14.135,4H3.865A2.868,2.868,0,0,0,1,6.865v10.27A2.868,2.868,0,0,0,3.865,20h10.27A2.868,2.868,0,0,0,17,17.135V6.865A2.868,2.868,0,0,0,14.135,4ZM15,17.135a.866.866,0,0,1-.865.865H3.865A.866.866,0,0,1,3,17.135V6.865A.866.866,0,0,1,3.865,6h10.27A.866.866,0,0,1,15,6.865Z"></path><path d="M22.472,5.118a1,1,0,0,0-1.027.05l-3,2a1,1,0,1,0,1.11,1.664L21,7.869v8.262l-1.445-.963a1,1,0,0,0-1.11,1.664l3,2A1,1,0,0,0,23,18V6A1,1,0,0,0,22.472,5.118Z"></path></svg>